<?xml version="1.0" encoding="utf-8"?>
<!-- Generator: Adobe Illustrator 25.0.0, SVG Export Plug-In . SVG Version: 6.00 Build 0)  -->
<svg version="1.2" baseProfile="tiny" id="Layer_1" xmlns="http://www.w3.org/2000/svg" xmlns:xlink="http://www.w3.org/1999/xlink"
	 x="0px" y="0px" viewBox="0 0 283.5 283.5" overflow="visible" xml:space="preserve">
<g>
	<g>
		<path fill="#231F20" d="M122.5,55.8c0.3,0.6,0.8,1,1.4,1.1l0.1,0l0.1,0c1.3-0.3,2-1.2,2-2.5c0-1.1-0.7-1.8-1.7-1.9l-0.1,0l-0.1,0
			c-1.7,0.7-1.8,1-1.8,3L122.5,55.8z"/>
		<path fill="#231F20" d="M198.9,69.6c-0.1-0.6-0.3-1.5-1.5-1.5c0,0,0,0,0,0c-0.5,0.1-0.8,0.4-1.3,0.9c-0.1,0.1-0.3,0.3-0.4,0.4
			l-0.9,0.7c-3.3,2.8-4.8,4.1-8.6,6.1c-0.8,0.4-1.8,0.7-2.7,0.7c-0.7,0-1.3-0.1-1.8-0.4c-0.5-0.6-0.8-1.2-0.8-1.9
			c-0.1-0.4-0.1-0.8-0.1-1.1c0-0.9,0.1-1.7,0.4-2.3c0,0,0.1,0,0.1,0c0.2-0.1,0.4-0.2,0.6-0.2c2-0.6,3.8-2,5.7-4.3
			c0.8-0.9,1.3-2.2,1.3-3.6c0-0.7-0.1-1.5-0.7-2.2c-0.5-0.5-1.1-1.1-2.2-1.1c-1.2,0-2.6,0.9-3.8,2.5c-2.4,3-4,5.7-4.5,9.4
			c0,0.2,0,0.3-0.1,0.5c-0.1,0.4-0.1,0.8-0.1,1.3c0,1,0.2,2.1,0.4,2.9c-0.3,0.2-0.5,0.3-0.7,0.4c-0.2,0-0.3,0.1-0.4,0.1
			c-0.4,0.1-0.7,0.1-1.2,0c-0.1,0-0.1,0-0.2,0c-1-0.7-1.9-2.5-2.2-3.8c-0.1-0.7-0.3-1.4-0.5-2.1c-0.3-1-0.8-1.9-2.1-2.4l-0.2,0
			c-0.2,0-0.3,0-0.5,0c-0.4,0-0.8,0-1.3,0c-0.5,0.1-1,0.4-1.4,0.6c-0.2,0.1-0.4,0.2-0.6,0.3c-0.2,0.1-0.4,0.2-0.6,0.3
			c-0.1,0-0.1,0.1-0.2,0.1c0.2-0.9,0.4-1.7,0.5-2.4c0.1-0.5,0.1-0.9,0.1-1.3c0-0.9-0.1-2.1-1.4-3l-0.1-0.1c-0.6-0.2-1-0.2-1.5-0.2
			c-0.8,0-1.6,0.2-2.4,0.6c-0.9,0.5-1.6,1.1-2.6,1.8c-1.8,1.3-3.3,3.1-4.4,4.7c-0.1,0.2-0.2,0.3-0.3,0.5c-0.1,0.1-0.2,0.3-0.3,0.4
			l1.8-7.4c0.1-0.6,0.4-1.2,0.6-1.8c0.3-0.7,0.6-1.5,0.7-2.2l0-0.1l0-0.1c-0.2-0.6-0.5-1.4-1.5-1.4l-0.1,0l-0.1,0
			c-0.7,0.2-1.3,0.7-1.5,1.4c-0.1,0.1-0.2,0.3-0.2,0.5l-0.4,1.2l-0.5,1.8c-0.1,0.6-0.3,1.5-0.6,2.4c-0.2,0.8-0.4,1.7-0.6,2.5
			c-2.3,1.3-5.2,2.5-7.3,3.2c-0.6-1.5-1.6-3-3.9-3.1c-0.6,0-1.2,0-1.7,0c-0.3,0-0.6,0-0.7,0c-0.4,0-0.7,0-0.8-0.1
			c0-1.1,0.6-2,1.2-3.1l0.2-0.3c0.6-1,1.3-2,2.4-2.7c0.5-0.2,0.8-0.4,1.1-0.4c0.2,0,0.4,0,0.7,0.3c0.7,0.6,0.7,1.5,0.6,2.6v0.4
			c0,0.7,0,1.2,0.1,1.7l0,0.1l0.1,0.1c0.5,0.5,0.9,0.6,1.5,0.6c0,0,0,0,0,0c0.8-0.1,1.3-0.7,1.5-1.7c0.1-1.5,0.1-3.1-0.5-4.6
			c-0.4-1.1-1.2-1.9-2.2-2.4c-0.6-0.3-1.2-0.4-1.9-0.4c-1,0-1.9,0.3-2.8,0.9c-2,1.4-3.5,3.3-4.7,5.8c-0.4,0.8-0.6,1.6-0.7,2.4
			c-2.2,0.4-4.1,0.9-5.7,1.4c-1,0.2-1.9,0.5-2.8,0.8c-0.9,0.3-1.9,0.6-2.9,0.9c0.2-1.3,0.6-2.5,0.9-3.7c0.2-0.8,0.4-1.6,0.6-2.4
			l0-0.1l0-0.1c-0.2-0.8-0.7-1.3-1.4-1.4l-0.1,0l-0.1,0c-0.8,0.2-1.3,0.6-1.5,1.3c-0.3,0.7-0.5,1.5-0.7,2.3c-0.5,1.8-1,3.6-1.5,5.6
			c-0.3,0.2-0.7,0.3-1,0.5c-0.4,0.2-0.7,0.3-1,0.5c-6.2,3-10.9,6-14.9,9.4c-5.8,4.9-9.3,11-10.5,18.1c0,0.2,0,0.4-0.1,0.7
			c-0.1,0.5-0.1,1-0.1,1.5c0,1.5,0.2,2.9,0.7,4.2l0,0c1.2,2.8,3.6,4.5,6.5,4.5c0.5,0,1.2,0,1.9-0.2c3.1-0.7,5.6-2.4,7.8-5.1
			c1.6-2,2.8-4.3,3.8-6.2c1.2-2.3,2.2-4.7,3.2-7l0.6-1.4c1.8-4.6,3.9-9.9,5.4-15.3c0.1-0.5,0.2-1,0.4-1.5l0-0.1
			c0.6-0.3,1.2-0.6,1.8-0.8c3.4-1.2,6.8-2.2,10.3-3c0.4-0.1,0.8-0.2,1.2-0.3c0.8,0.6,2,0.7,3,0.7l1,0c0.7,0,1.8,0,2,0.4
			c0.1,0.1,0.3,0.5,0.3,0.9v0c-0.3,0.1-0.5,0.2-0.8,0.4c-0.5,0.2-0.9,0.4-1.2,0.6c-1.5,0.8-3.3,1.8-4.8,3.1
			c-0.7,0.7-1.4,1.4-1.8,2.3c-0.3,0.6-0.4,1.2-0.4,1.6c0,0.9,0.3,1.4,0.6,2l0.1,0.2l0.1,0.1c0.9,0.8,1.7,1.2,2.8,1.2
			c0.2,0,0.5,0,0.7-0.1c3.1-0.7,5.8-3.5,7.4-7.2c0.3-0.7,0.6-1.4,0.7-2c0.6-0.3,1.2-0.5,1.7-0.7c0.6-0.2,1.1-0.4,1.5-0.6l0.7-0.3
			c0.8-0.3,1.5-0.6,2.2-1c-0.5,1.6-0.9,3.2-1.2,4.8c-0.2,0.7-0.3,1.3-0.5,2c-0.1,0.3-0.1,0.7-0.1,0.9v0.3c0,0.3,0.1,0.6,0.4,1
			l0.2,0.2l0.2,0c0,0,0.1,0,0.1,0c0.1,0.1,0.3,0.1,0.5,0.1c0.2,0,0.4-0.1,0.6-0.1h0.1l0.1-0.1c0.6-0.4,0.9-1,1.2-1.5
			c0.1-0.1,0.1-0.3,0.2-0.4c1.6-2.7,3.3-5.5,5.2-8c1.6-2.3,3.4-3.9,5.5-5c0.1,0,0.2-0.1,0.3-0.1c0.1,0,0.1-0.1,0.2,0c0,0,0,0,0,0
			c0,0.2,0,0.4,0,0.7c0,0.7-0.1,1.4-0.3,2.1c-0.2,1.1-0.6,2.2-0.9,3.2c-0.2,0.5-0.3,1.1-0.5,1.7c0,0.1-0.1,0.3-0.1,0.5
			c-0.1,0.3-0.1,0.6-0.1,0.9c0,0.4,0.1,0.6,0.2,0.9l0.2,0.3c0.2,0.2,0.6,0.6,1.2,0.6c0.2,0,0.5,0,0.6-0.1c0.7-0.4,1.1-1,1.4-1.5
			l0.1-0.2c1.1-1.5,2.4-2.5,3.9-3.3l0.1-0.1c0.2-0.1,0.5-0.2,0.7-0.1c0.2,0.4,0.3,0.8,0.4,1.3c0.1,0.4,0.2,0.9,0.4,1.3
			c0.4,1.3,2.1,5.6,5.9,6.1c1.5,0.1,2.8-0.4,3.7-1.2c0.4,0.2,0.7,0.4,1.2,0.6l0,0c0.7,0.2,1.5,0.4,2.2,0.4c3.3,0,7.3-2,11.9-6.1
			l2.8-2.6c0.4-0.4,0.6-0.9,0.7-1.2l0-0.1L198.9,69.6z M182.8,66.9c1.2-2.2,2-3.2,3-3.6c0,0.1,0,0.3-0.1,0.4
			C185.3,64.8,184.2,66,182.8,66.9z M139.8,76c-0.5,1.3-1.3,2.4-2.5,3.3l0,0c-0.6,0.5-1.5,1-2.1,1c-0.1,0-0.1,0-0.2-0.1l0-0.1
			c0-0.1-0.1-0.2-0.1-0.3c0-0.3,0.2-0.8,0.4-1C136.4,77.8,138.4,76.6,139.8,76z M117,75.5c-1.5,5.8-6,16.7-9.2,23
			c-0.5,1.1-1,2-1.6,3.1l-0.3,0.5c-0.8,1.2-1.7,2.3-2.7,3.1c-1.8,1.6-3.5,2.3-5.3,2.3c-0.4,0-1,0-1.4-0.1c-1.7-0.8-2.5-2.1-2.5-4.3
			c-0.2-3.1,0.4-5.9,1.7-8.6c2-4.7,5.1-8.5,9.2-11.6c3.4-2.5,7.2-4.9,11.4-7C116.5,75.8,116.7,75.7,117,75.5z"/>
	</g>
	<g>
		<path fill="#F6B51B" d="M50.9,128.1V93h18.3v3.8H53.8l1.4-1.1v14.9l-1.4-1.9h14.4v3.8H53.8l1.4-1.9v17.6H50.9z"/>
		<path fill="#F6B51B" d="M77.4,128.1V93h4.3v35.1H77.4z"/>
		<path fill="#F6B51B" d="M97.3,128.1V96.9H87.1V93h24.7v3.9h-10.2v31.2H97.3z"/>
		<path fill="#F6B51B" d="M119.1,128.1V93h4.3l17.7,27.8V93h4.3v35.1h-4.3l-17.7-27.8v27.8H119.1z"/>
		<path fill="#F6B51B" d="M156.4,128.1V93h18.2v3.8h-13.9v11.8h13.4v3.8h-13.4v11.9h13.9v3.8H156.4z"/>
		<path fill="#F6B51B" d="M192.6,128.8c-1.8,0-3.3-0.2-4.7-0.7c-1.4-0.5-2.6-1.1-3.6-1.8c-1-0.7-1.8-1.4-2.4-2.1
			c-0.6-0.7-1.1-1.2-1.4-1.6l2.4-3.4c0.3,0.4,0.8,0.9,1.3,1.5c0.6,0.6,1.2,1.2,2,1.9c0.8,0.6,1.8,1.1,2.8,1.6
			c1.1,0.4,2.3,0.6,3.7,0.6c1.3,0,2.5-0.2,3.5-0.7c1-0.5,1.9-1.1,2.5-2s0.9-2,0.9-3.3c0-1.1-0.2-2.1-0.7-2.9c-0.5-0.8-1.1-1.5-1.9-2
			c-0.8-0.6-1.8-1.1-2.8-1.6c-1.1-0.5-2.2-1-3.5-1.4c-0.9-0.4-1.8-0.8-2.7-1.2c-0.9-0.5-1.7-1.1-2.5-1.7c-0.8-0.7-1.4-1.5-1.9-2.5
			c-0.5-1-0.7-2.1-0.7-3.4c0-1.3,0.2-2.5,0.7-3.7c0.5-1.2,1.2-2.2,2.1-3.1c0.9-0.9,2-1.6,3.2-2.1c1.3-0.5,2.6-0.8,4.2-0.8
			c1.4,0,2.6,0.2,3.9,0.6c1.2,0.4,2.3,1,3.2,1.6c1,0.7,1.7,1.4,2.3,2.1l-2,3.2c-0.5-0.6-1.1-1.2-1.8-1.7c-0.7-0.5-1.6-1-2.5-1.3
			c-0.9-0.3-1.9-0.5-3-0.5c-1.3,0-2.4,0.3-3.4,0.8c-0.9,0.5-1.6,1.3-2.1,2.1c-0.5,0.9-0.7,1.8-0.7,2.8c0,0.9,0.2,1.6,0.5,2.2
			c0.4,0.6,0.8,1.1,1.5,1.6c0.6,0.4,1.3,0.8,2.1,1.1c0.8,0.3,1.6,0.6,2.4,0.9c1.4,0.6,2.8,1.2,4.1,1.8c1.3,0.6,2.4,1.3,3.4,2.1
			c1,0.8,1.7,1.8,2.3,2.9c0.6,1.1,0.8,2.5,0.8,4.1c0,2.1-0.5,4-1.5,5.5c-1,1.5-2.4,2.7-4.2,3.5C196.9,128.4,194.9,128.8,192.6,128.8
			z"/>
		<path fill="#F6B51B" d="M220.9,128.8c-1.8,0-3.3-0.2-4.7-0.7c-1.4-0.5-2.6-1.1-3.6-1.8c-1-0.7-1.8-1.4-2.4-2.1
			c-0.6-0.7-1.1-1.2-1.4-1.6l2.4-3.4c0.3,0.4,0.8,0.9,1.3,1.5c0.6,0.6,1.2,1.2,2,1.9c0.8,0.6,1.8,1.1,2.8,1.6
			c1.1,0.4,2.3,0.6,3.7,0.6c1.3,0,2.5-0.2,3.5-0.7c1-0.5,1.9-1.1,2.5-2s0.9-2,0.9-3.3c0-1.1-0.2-2.1-0.7-2.9c-0.5-0.8-1.1-1.5-1.9-2
			c-0.8-0.6-1.8-1.1-2.8-1.6c-1.1-0.5-2.2-1-3.5-1.4c-0.9-0.4-1.8-0.8-2.7-1.2c-0.9-0.5-1.7-1.1-2.5-1.7c-0.8-0.7-1.4-1.5-1.9-2.5
			c-0.5-1-0.7-2.1-0.7-3.4c0-1.3,0.2-2.5,0.7-3.7c0.5-1.2,1.2-2.2,2.1-3.1c0.9-0.9,2-1.6,3.2-2.1c1.3-0.5,2.6-0.8,4.2-0.8
			c1.4,0,2.6,0.2,3.9,0.6c1.2,0.4,2.3,1,3.2,1.6c1,0.7,1.7,1.4,2.3,2.1l-2,3.2c-0.5-0.6-1.1-1.2-1.8-1.7c-0.7-0.5-1.6-1-2.5-1.3
			c-0.9-0.3-1.9-0.5-3-0.5c-1.3,0-2.4,0.3-3.4,0.8c-0.9,0.5-1.6,1.3-2.1,2.1c-0.5,0.9-0.7,1.8-0.7,2.8c0,0.9,0.2,1.6,0.5,2.2
			c0.4,0.6,0.8,1.1,1.5,1.6c0.6,0.4,1.3,0.8,2.1,1.1c0.8,0.3,1.6,0.6,2.4,0.9c1.4,0.6,2.8,1.2,4.1,1.8c1.3,0.6,2.4,1.3,3.4,2.1
			c1,0.8,1.7,1.8,2.3,2.9c0.6,1.1,0.8,2.5,0.8,4.1c0,2.1-0.5,4-1.5,5.5c-1,1.5-2.4,2.7-4.2,3.5C225.1,128.4,223.1,128.8,220.9,128.8
			z"/>
		<path fill="#61B74B" d="M73.6,179.2v-35.1H92v3.8H76.6l1.4-1.1v14.9l-1.4-1.9H91v3.8H76.6l1.4-1.9v17.6H73.6z"/>
		<path fill="#61B74B" d="M115.6,179.9c-2.5,0-4.8-0.5-6.9-1.4s-4-2.2-5.6-3.9c-1.6-1.7-2.9-3.6-3.8-5.8c-0.9-2.2-1.4-4.6-1.4-7.1
			c0-2.5,0.5-4.9,1.4-7.1c0.9-2.2,2.2-4.1,3.8-5.8c1.6-1.7,3.5-3,5.6-3.9s4.4-1.4,6.9-1.4c2.5,0,4.8,0.5,6.9,1.4
			c2.1,0.9,4,2.2,5.6,3.9c1.6,1.7,2.9,3.6,3.8,5.8c0.9,2.2,1.4,4.6,1.4,7.1c0,2.5-0.5,4.9-1.4,7.1c-0.9,2.2-2.2,4.1-3.8,5.8
			c-1.6,1.7-3.5,3-5.6,3.9C120.3,179.4,118,179.9,115.6,179.9z M115.6,175.7c1.8,0,3.6-0.4,5.1-1.1c1.6-0.7,3-1.7,4.1-3
			c1.2-1.3,2.1-2.8,2.8-4.5c0.7-1.7,1-3.6,1-5.5c0-2-0.3-3.8-1-5.5c-0.7-1.7-1.6-3.2-2.8-4.5c-1.2-1.3-2.6-2.3-4.1-3
			c-1.6-0.7-3.3-1.1-5.1-1.1c-1.8,0-3.6,0.4-5.1,1.1c-1.6,0.7-3,1.7-4.1,3c-1.2,1.3-2.1,2.8-2.8,4.5c-0.7,1.7-1,3.6-1,5.5
			c0,2,0.3,3.8,1,5.5c0.7,1.7,1.6,3.2,2.8,4.5c1.2,1.3,2.6,2.3,4.1,3C112,175.4,113.7,175.7,115.6,175.7z"/>
		<path fill="#61B74B" d="M157.3,179.9c-2.5,0-4.8-0.5-6.9-1.4c-2.1-0.9-4-2.2-5.6-3.9c-1.6-1.7-2.9-3.6-3.8-5.8
			c-0.9-2.2-1.4-4.6-1.4-7.1c0-2.5,0.5-4.9,1.4-7.1c0.9-2.2,2.2-4.1,3.8-5.8c1.6-1.7,3.5-3,5.6-3.9c2.1-0.9,4.4-1.4,6.9-1.4
			c2.5,0,4.8,0.5,6.9,1.4c2.1,0.9,4,2.2,5.6,3.9c1.6,1.7,2.9,3.6,3.8,5.8c0.9,2.2,1.4,4.6,1.4,7.1c0,2.5-0.5,4.9-1.4,7.1
			c-0.9,2.2-2.2,4.1-3.8,5.8c-1.6,1.7-3.5,3-5.6,3.9C162.1,179.4,159.8,179.9,157.3,179.9z M157.3,175.7c1.8,0,3.6-0.4,5.1-1.1
			c1.6-0.7,3-1.7,4.1-3c1.2-1.3,2.1-2.8,2.8-4.5c0.7-1.7,1-3.6,1-5.5c0-2-0.3-3.8-1-5.5c-0.7-1.7-1.6-3.2-2.8-4.5
			c-1.2-1.3-2.6-2.3-4.1-3c-1.6-0.7-3.3-1.1-5.1-1.1c-1.8,0-3.6,0.4-5.1,1.1c-1.6,0.7-3,1.7-4.1,3c-1.2,1.3-2.1,2.8-2.8,4.5
			c-0.7,1.7-1,3.6-1,5.5c0,2,0.3,3.8,1,5.5c0.7,1.7,1.6,3.2,2.8,4.5c1.2,1.3,2.6,2.3,4.1,3C153.8,175.4,155.5,175.7,157.3,175.7z"/>
		<path fill="#61B74B" d="M183.6,179.2v-35.1h8.4c2.5,0,4.8,0.4,7,1.3c2.1,0.9,4,2.1,5.6,3.7c1.6,1.6,2.9,3.5,3.8,5.6
			c0.9,2.1,1.4,4.4,1.4,6.9s-0.4,4.8-1.3,6.9c-0.9,2.1-2.1,4-3.8,5.6c-1.6,1.6-3.5,2.8-5.6,3.7c-2.1,0.9-4.5,1.3-7,1.3H183.6z
			 M188,175.3h3.7c1.9,0,3.7-0.3,5.3-1c1.6-0.7,3.1-1.7,4.3-2.9c1.2-1.2,2.2-2.7,2.9-4.4c0.7-1.7,1-3.5,1-5.4c0-1.9-0.3-3.7-1-5.4
			c-0.7-1.7-1.6-3.1-2.9-4.3c-1.2-1.2-2.7-2.2-4.3-2.9c-1.6-0.7-3.4-1-5.3-1H188V175.3z"/>
		<path fill="#61B74B" d="M72.2,230.3l4.2-35.1H81l9.7,25.8l9.7-25.8h4.6l4.2,35.1H105l-3.4-27.2l-9.4,25.4h-2.9l-9.4-25.4
			l-3.4,27.2H72.2z"/>
		<path fill="#61B74B" d="M118.3,230.3v-35.1h18.2v3.8h-13.9v11.8h13.4v3.8h-13.4v11.9h13.9v3.8H118.3z"/>
		<path fill="#61B74B" d="M145.7,230.3v-35.1h4.3l17.7,27.8v-27.8h4.3v35.1h-4.3l-17.7-27.8v27.8H145.7z"/>
		<path fill="#61B74B" d="M195,230.9c-4.1,0-7.3-1.1-9.4-3.3c-2.1-2.2-3.1-5.5-3.1-9.9v-22.6h4.3v21.5c0,3.4,0.7,5.9,2,7.6
			s3.4,2.5,6.2,2.5s4.8-0.8,6.2-2.5s2-4.2,2-7.6v-21.5h4.3v22.6c0,4.4-1,7.7-3.1,9.9C202.3,229.8,199.1,230.9,195,230.9z"/>
	</g>
</g>
</svg>
